<svg width="20" height="15" viewBox="0 0 20 15" xmlns="http://www.w3.org/2000/svg">
  <rect width="20" height="15" fill="#B22234"/>
  <rect width="20" height="1.15" fill="white"/>
  <rect y="2.3" width="20" height="1.15" fill="white"/>
  <rect y="4.6" width="20" height="1.15" fill="white"/>
  <rect y="6.9" width="20" height="1.15" fill="white"/>
  <rect y="9.2" width="20" height="1.15" fill="white"/>
  <rect y="11.5" width="20" height="1.15" fill="white"/>
  <rect y="13.8" width="20" height="1.15" fill="white"/>
  <rect width="8" height="8.05" fill="#3C3B6E"/>
  <circle cx="1.5" cy="1.5" r="0.4" fill="white"/>
  <circle cx="3" cy="1.5" r="0.4" fill="white"/>
  <circle cx="4.5" cy="1.5" r="0.4" fill="white"/>
  <circle cx="6" cy="1.5" r="0.4" fill="white"/>
  <circle cx="7.5" cy="1.5" r="0.4" fill="white"/>
  <circle cx="2.25" cy="2.5" r="0.4" fill="white"/>
  <circle cx="3.75" cy="2.5" r="0.4" fill="white"/>
  <circle cx="5.25" cy="2.5" r="0.4" fill="white"/>
  <circle cx="6.75" cy="2.5" r="0.4" fill="white"/>
  <circle cx="1.5" cy="3.5" r="0.4" fill="white"/>
  <circle cx="3" cy="3.5" r="0.4" fill="white"/>
  <circle cx="4.5" cy="3.5" r="0.4" fill="white"/>
  <circle cx="6" cy="3.5" r="0.4" fill="white"/>
  <circle cx="7.5" cy="3.5" r="0.4" fill="white"/>
  <circle cx="2.25" cy="4.5" r="0.4" fill="white"/>
  <circle cx="3.75" cy="4.5" r="0.4" fill="white"/>
  <circle cx="5.25" cy="4.5" r="0.4" fill="white"/>
  <circle cx="6.75" cy="4.5" r="0.4" fill="white"/>
  <circle cx="1.5" cy="5.5" r="0.4" fill="white"/>
  <circle cx="3" cy="5.5" r="0.4" fill="white"/>
  <circle cx="4.5" cy="5.5" r="0.4" fill="white"/>
  <circle cx="6" cy="5.5" r="0.4" fill="white"/>
  <circle cx="7.5" cy="5.5" r="0.4" fill="white"/>
  <circle cx="2.25" cy="6.5" r="0.4" fill="white"/>
  <circle cx="3.75" cy="6.5" r="0.4" fill="white"/>
  <circle cx="5.25" cy="6.5" r="0.4" fill="white"/>
  <circle cx="6.75" cy="6.5" r="0.4" fill="white"/>
  <circle cx="1.5" cy="7.5" r="0.4" fill="white"/>
  <circle cx="3" cy="7.5" r="0.4" fill="white"/>
  <circle cx="4.5" cy="7.5" r="0.4" fill="white"/>
  <circle cx="6" cy="7.5" r="0.4" fill="white"/>
  <circle cx="7.5" cy="7.5" r="0.4" fill="white"/>
</svg>
